<?xml version="1.0" standalone="no"?>
<!DOCTYPE svg PUBLIC "-//W3C//DTD SVG 20010904//EN"
 "http://www.w3.org/TR/2001/REC-SVG-20010904/DTD/svg10.dtd">
<svg version="1.0" xmlns="http://www.w3.org/2000/svg"
 width="700.000000pt" height="700.000000pt" viewBox="0 0 700.000000 700.000000"
 preserveAspectRatio="xMidYMid meet">
<metadata>
Created by potrace 1.11, written by Peter Selinger 2001-2013
</metadata>
<g transform="translate(0.000000,700.000000) scale(0.100000,-0.100000)"
fill="#000000" stroke="none">
<path d="M5465 6839 c-136 -22 -161 -42 -1916 -1510 l-46 -38 -259 216 c-668
557 -1222 1029 -1379 1173 -53 49 -114 94 -148 111 -218 104 -474 22 -578
-184 -62 -121 -59 4 -58 -2297 l0 -2105 1204 -1025 c662 -563 1208 -1026 1214
-1028 5 -2 557 454 1226 1014 l1215 1017 -2 2176 -3 2176 -33 64 c-67 127
-182 217 -306 240 -66 12 -60 12 -131 0z m75 -984 l0 -524 -540 -453 -539
-453 -1 -279 c0 -263 1 -278 17 -265 10 8 161 139 335 292 l318 278 0 -368 -1
-368 -334 -290 -334 -290 -1 -827 0 -827 -327 -271 c-180 -148 -330 -270 -335
-270 -4 0 -8 895 -8 1988 l0 1989 872 731 c480 403 874 732 875 732 2 0 3
-236 3 -525z m-3116 -255 l825 -705 1 -529 c0 -503 -1 -528 -17 -514 -132 114
-1004 848 -1008 848 -3 0 -5 -115 -5 -255 l0 -254 320 -268 319 -268 1 -378
c0 -300 -3 -377 -12 -370 -11 6 -557 455 -610 501 -17 14 -18 0 -18 -290 l0
-305 515 -429 515 -429 0 -538 0 -537 -292 253 c-161 139 -537 463 -835 721
l-543 468 0 1995 c0 1187 4 1993 9 1991 5 -1 381 -320 835 -708z"/>
</g>
</svg>
